<?xml version="1.0" encoding="UTF-8"?>
<svg width="373px" height="145px" viewBox="0 0 373 145" version="1.1" xmlns="http://www.w3.org/2000/svg" xmlns:xlink="http://www.w3.org/1999/xlink">
    <title>Group</title>
    <defs>
        <polygon id="path-1" points="0 0.0855689056 168.334557 0.0855689056 168.334557 26.8400348 0 26.8400348"></polygon>
        <path d="M40.8933224,48.2896031 C39.1188914,47.7645517 37.2469819,47.4636735 35.3081229,47.4280219 C29.126269,47.3205268 23.51911,49.9009491 19.5824763,54.0991995 C19.2359455,54.4584168 18.8979841,54.8224956 18.588945,55.2044003 L0.307432346,55.8828618 C0.318679871,55.169829 6.12508067,31.807743 6.12508067,31.807743 C6.12508067,31.807743 7.84702317,25.8220491 8.26907315,25.1241412 C21.9669516,2.60581061 42.6168716,0.655774063 84.0029427,0.354895848 L84.0029427,0.30465945 C84.3757178,0.30465945 84.7083232,0.323025445 85.0735999,0.324105797 C85.1335867,0.32518615 85.1919667,0.323565621 85.2498112,0.322485268 C85.3713915,0.319784387 85.4908295,0.317623681 85.6183015,0.334369148 C126.91707,0.56502444 145.205546,15.0574152 160.145472,22.2482425 C175.27982,29.5384622 205.061124,36.6061293 212.501094,39.215181 C214.098778,39.7737233 215.322616,40.5283496 216.311327,41.4007344 L214.579743,41.399654 C211.614682,41.3910112 209.207711,43.8034387 209.198606,46.785212 C209.191643,49.7772487 211.587366,52.2021003 214.555106,52.2091225 L220.313303,52.2215466 C220.348117,52.6531475 220.3915,53.0793466 220.433812,53.481778 C220.496477,54.1105432 220.534504,54.7879243 220.53986,55.5025776 L195.340049,55.4409975 C191.594623,50.7900793 185.956935,47.753208 179.551737,47.7380831 C173.148682,47.7191769 167.499747,50.6409907 163.731826,55.2784044 L51.4526058,55.2784044 C48.7681965,51.9433558 45.1084662,49.4477412 40.8933224,48.2896031" id="path-3"></path>
        <polygon id="path-5" points="0.0311392622 0.106331995 39.926243 0.106331995 39.926243 22.4452268 0.0311392622 22.4452268"></polygon>
        <path d="M19.4880965,0.111423497 C16.5272506,3.86475509 14.6492284,8.65822786 14.5608124,13.8815578 C14.5477137,14.710164 14.5831893,15.5280238 14.6525031,16.3357027 C14.6410417,16.6298155 14.6295804,16.9244939 14.6252142,17.2220003 C14.6241226,17.3277678 14.6273973,17.2514115 14.6257599,17.357179 C12.5408878,17.4312728 8.94202743,17.3498262 5.60786937,15.2073277 C2.76436578,13.3860909 1.24710282,9.85730306 0.534316702,6.19673011 C0.253374367,4.77038741 0.0972764922,3.32279227 0.0324300219,1.94688078 L0.0328191598,0.633638043 C0.103808617,0.392121279 0.322764568,0.159499625 0.980217362,0.159499625 L1.3339982,0.159001172" id="path-7"></path>
        <path d="M28.8327427,0.166751049 L28.3731555,31.8973295 C28.3731555,31.8973295 21.8096043,58.8229461 9.66403233,55.2584361 C-2.48211704,51.692275 0.747695177,40.9998455 0.747695177,40.9998455 L0.747695177,40.9998455 L10.4307807,0.166751049" id="path-9"></path>
        <path d="M47.3804259,35.4295511 L0.283173887,35.4295511 C0.283173887,35.4295511 3.10804793,17.1216163 4.61258798,11.7751827 L14.7502131,0.414868614 C25.1681518,20.7634313 30.6291173,35.4295511 47.3804259,35.4295511 L47.3804259,35.4295511 Z" id="path-11"></path>
        <polygon id="path-13" points="0.318526188 0 44.7432817 0 44.7432817 66.6762752 0.318526188 66.6762752"></polygon>
    </defs>
    <g id="Symbols" stroke="none" stroke-width="1" fill="none" fill-rule="evenodd">
        <g id="illu-bottom-q&amp;b" transform="translate(-198.000000, 0.000000)">
            <g id="Group" transform="translate(198.000000, 0.000000)">
                <g id="Group-14">
                    <g id="Group-3" transform="translate(0.000000, 70.289234)">
                        <mask id="mask-2" fill="white">
                            <use xlink:href="#path-1"></use>
                        </mask>
                        <g id="Clip-2"></g>
                    </g>
                    <g id="Group-6" transform="translate(4.648031, 70.289234)" fill="#A6D6D9">
                        <path d="M0.0204848727,26.8401037 L146.579498,26.8401037 C146.579498,26.8401037 134.347425,-0.351604456 116.529434,0.0909120154 C98.7126443,0.532740281 95.0790044,10.4387778 87.3774177,10.466306 C76.5840234,10.466306 71.3573246,3.69986439 61.4787978,8.48909009 C49.6533993,14.2218463 43.6956474,23.3997618 22.5125298,16.4901733 C9.0742493,12.1063009 0.0204848727,26.8401037 0.0204848727,26.8401037" id="Fill-4"></path>
                    </g>
                    <polygon id="Fill-7" fill="#B98447" points="41.3235151 97.1292686 45.3825244 97.1292686 45.3825244 79.9165478 41.3235151 79.9165478"></polygon>
                    <path d="M21.3844171,59.9487318 C21.3954564,59.5571426 21.4092555,59.1579831 21.4313341,58.7553826 C21.9129232,49.9098706 24.9632172,42.2804187 28.7614232,34.4231705 C32.2118915,27.2857859 35.520229,19.9708441 36.2840099,11.9890306 C36.6731449,7.95614335 37.3465416,-2.64567041 44.189522,0.613673309 C49.8140407,3.29423576 50.7289219,12.354468 51.1905022,17.816071 C51.7610956,24.5735659 51.5506591,31.5629863 54.3829271,37.8827822 C55.7145416,40.8523912 57.6484873,43.3567729 59.4306428,46.046282 C61.8903348,49.7550243 63.1246655,53.6296242 63.2612767,58.0623591 C63.4530844,64.2369436 62.0704132,70.4142808 58.432277,75.4698422 C55.8884104,79.0072212 51.9018465,83.4771193 47.6744881,84.8301323 C41.2130532,86.9002561 33.7366936,83.5576394 29.2188638,78.9617996 C23.6550613,73.3040579 21.2119282,67.7151368 21.3844171,59.9487318" id="Fill-9" fill="#A6D6D9"></path>
                    <polygon id="Fill-10" fill="#B98447" points="75.319701 97.1292686 78.7984575 97.1292686 78.7984575 82.3851428 75.319701 82.3851428"></polygon>
                    <path d="M57.9406146,65.2870083 C57.8529902,62.4240713 58.2931819,59.5397998 59.3253556,56.7897286 C61.949947,49.7782856 68.4189714,44.1845471 69.8526993,36.8290011 C70.5212663,33.3934767 70.5799125,29.823752 70.5799125,26.2774264 C70.5799125,21.8006462 71.024244,10.1623942 78.5047434,14.3047063 C83.3544418,16.9907744 83.9650526,25.3545421 84.4176635,30.1017873 C84.9137416,35.3183889 86.2253474,39.7937927 88.4373453,44.5665014 C93.2780743,55.0003929 97.4157384,68.242165 89.9773263,78.5748902 C87.7991363,81.6043731 84.3831657,85.4335514 80.7567587,86.5945549 C75.2226243,88.3673736 68.8212155,85.502372 64.9464245,81.5658335 C60.6486906,77.1950371 58.1296624,71.2909176 57.9406146,65.2870083" id="Fill-11" fill="#6BBEC3"></path>
                    <polygon id="Fill-12" fill="#B98447" points="15.6682034 97.1292686 18.5487683 97.1292686 18.5487683 84.9149881 15.6682034 84.9149881"></polygon>
                    <path d="M1.64285345,70.7415916 C1.71874858,59.2643798 9.16406025,49.4381742 9.80088933,37.9650916 C9.98993719,34.5736124 11.7410447,25.0495292 17.3427948,27.4493036 C21.0947737,29.0590175 20.9761014,37.1454383 21.4528607,40.4178579 C22.6023269,48.2888702 25.6415816,55.5948653 28.8146878,62.769413 C31.7014623,69.2977354 32.1547632,75.720074 27.8121822,81.7583936 C26.0051883,84.2682809 23.1743001,87.4409107 20.172303,88.4023345 C15.5868576,89.870278 10.2824784,87.4973436 7.07625438,84.2366235 C3.0165552,80.1108284 1.61042554,75.5328819 1.64285345,70.7415916" id="Fill-13" fill="#6BBEC3"></path>
                </g>
                <g id="man_using_allianz_car_app_on_smartphone" transform="translate(133.000000, 4.000000)">
                    <path d="M124.584942,34.8558412 L124.584442,34.8558412 C124.554946,34.8558412 124.524949,34.8552979 124.494953,34.8542112 C122.012246,34.8542112 122.048742,32.1153376 119.155584,31.5193161 C119.773511,30.9406808 120.495426,30.5739401 121.336326,30.5739401 C124.991394,30.5739401 125.11288,33.2584818 127.004156,33.891449 C126.997657,33.8957956 126.991657,33.9006855 126.985158,33.905032 C126.96716,33.9180717 126.949162,33.9311114 126.931164,33.944151 C126.929165,33.9452377 126.927665,33.9463243 126.926165,33.947411 C126.132259,34.5124633 125.358851,34.8542112 124.589442,34.8558412 C124.587942,34.8558412 124.586442,34.8558412 124.584942,34.8558412" id="Fill-1" fill="#F6FAF9"></path>
                    <path d="M52.7994805,61.617723 C52.7994805,62.2082016 52.2775181,62.6881983 51.6301404,62.6881983 L45.4067427,62.6881983 C44.7629741,62.6881983 44.2374026,62.2082016 44.2374026,61.617723 C44.2374026,61.026003 44.7629741,60.5472477 45.4067427,60.5472477 L51.6301404,60.5472477 C52.2775181,60.5472477 52.7994805,61.026003 52.7994805,61.617723" id="Fill-5" fill="#31506D"></path>
                    <polygon id="Fill-6" fill="#101B1E" points="154.830909 96.2297568 203.349351 96.2297568 203.349351 69.8247001 154.830909 69.8247001"></polygon>
                    <polyline id="Fill-7" fill="#101B1E" points="12.1296104 96.2297568 68.4966234 96.2297568 67.2955523 69.8247001 14.6023413 73.0306038 12.1296104 96.2297568"></polyline>
                    <path d="M41.9258408,75.8764764 C40.1552163,75.3573496 38.2873223,75.0598665 36.3526224,75.0246171 C30.1840294,74.918335 24.5888985,77.4696401 20.6607094,81.6205179 C20.3149219,81.9756818 19.9776855,82.3356525 19.6693093,82.7132477 L1.42701299,83.3840535 C1.43823638,82.6790666 7.23271613,59.5805957 7.23271613,59.5805957 C7.23271613,59.5805957 8.95043038,53.6624437 9.371575,52.972411 C23.0400697,30.7081748 43.6456929,28.7801422 84.9429853,28.4826591 L84.9429853,28.4329896 C85.3149607,28.4329896 85.6468526,28.4511483 86.0113458,28.4522165 C86.197868,28.4548869 86.3678223,28.4377963 86.5554134,28.462364 C127.765056,28.6904166 146.014301,43.0192768 160.922179,50.1289636 C176.024062,57.3369213 205.74148,64.3248376 213.165491,66.904449 C214.759747,67.4566888 215.98096,68.2028 216.96755,69.0653409 L215.239681,69.0642727 C212.28098,69.0557274 209.879173,71.4409333 209.870087,74.3890607 C209.863139,77.3473356 212.253723,79.7448253 215.215097,79.7517684 L220.960942,79.7640523 C220.995681,80.190783 221.038971,80.6121729 221.081192,81.0100633 C221.143723,81.6317336 221.181669,82.3014713 221.187013,83.0080605 L196.041258,82.9471752 C192.303867,78.3487375 186.678273,75.3461339 180.286815,75.3311796 C173.897495,75.3124868 168.260678,78.2013311 164.500839,82.7864168 L52.4624732,82.7864168 C49.7838224,79.4890005 46.1319426,77.0215461 41.9258408,75.8764764" id="Fill-8" fill="#B68C5A"></path>
                    <g id="Group-11" transform="translate(0.713506, 27.719339)">
                        <mask id="mask-4" fill="white">
                            <use xlink:href="#path-3"></use>
                        </mask>
                        <g id="Clip-10"></g>
                        <path d="M20.6038587,10.6101435 C20.4158644,10.7992052 18.311506,28.5142879 10.8843905,28.5142879 C10.8843905,28.5142879 6.285224,28.4716139 6.13954178,28.4716139 C6.58622919,26.9580399 6.69549086,23.683491 6.90812264,23.3307558 C10.4377031,17.5265612 15.0363339,14.24499 19.7233382,10.847821 L20.6038587,10.6101435" id="Fill-9" fill="#B3D4D4" mask="url(#mask-4)"></path>
                    </g>
                    <path d="M158.438279,94.7662689 C158.436142,95.9950417 158.550498,97.1951852 158.7231,98.3707073 L89.4234562,98.1954956 L83.4064148,98.1794631 L55.4175537,98.2997065 C55.5987062,97.1264747 55.7162683,95.928049 55.7210776,94.7004213 C55.7317651,89.4635359 53.5141166,84.3033771 50.658961,80.5294528 L163.392987,80.5294528 C160.522335,84.2902076 158.450036,89.5322464 158.438279,94.7662689" id="Fill-12" fill="#A6784B"></path>
                    <path d="M214.708869,94.4546902 C214.379143,94.5902202 200.01898,96.2297568 200.01898,96.2297568 C200.209314,95.2655173 200.340309,94.2801012 200.343668,93.2683321 C200.354864,88.9671368 198.491267,85.059355 195.500779,81.9567532 C195.500779,81.9567532 220.477118,81.9835768 221.840807,82.0080475 C223.207296,82.0306358 223.364601,82.7539331 223.321496,83.1384054 C222.882048,87.2687764 219.885962,92.3492692 214.708869,94.4546902" id="Fill-13" fill="#A6784B"></path>
                    <path d="M162.682049,92.3749703 C162.840268,83.3141508 170.315451,76.0918524 179.377147,76.2501035 C188.438842,76.4078144 195.656446,83.8828825 195.498227,92.9469427 C195.340008,102.013163 187.868065,109.231681 178.806909,109.07289 C169.743594,108.913558 162.52329,101.441731 162.682049,92.3749703" id="Fill-14" fill="#49545B"></path>
                    <path d="M169.10291,93.1770397 C169.214863,86.8709176 174.57564,81.8488303 181.080695,81.9585162 C187.582375,82.0676564 192.756378,87.2692795 192.644988,93.5748558 C192.530785,99.8842521 187.173946,104.903065 180.669453,104.791742 C174.166648,104.683148 168.988145,99.4891645 169.10291,93.1770397" id="Fill-15" fill="#DAEDEC"></path>
                    <path d="M19.2672274,94.5154241 C19.4249119,85.4546279 26.8998045,78.2338587 35.9618024,78.3910198 C45.0254202,78.5508813 52.2416455,86.0260246 52.083421,95.0868208 C51.9284366,104.154638 44.4524639,111.370006 35.3920862,111.213925 C26.3279283,111.055144 19.1090029,103.582701 19.2672274,94.5154241" id="Fill-16" fill="#49545B"></path>
                    <path d="M24.261092,93.1787109 C24.3730522,86.8725888 29.7347645,81.8477728 36.2380208,81.9585502 C42.7424023,82.0687818 47.9162015,87.2687678 47.803116,93.576527 C47.6905932,99.8859234 42.3322566,104.902008 35.8295629,104.791776 C29.325744,104.680999 24.1463187,99.4881073 24.261092,93.1787109" id="Fill-17" fill="#DAEDEC"></path>
                    <path d="M209.057403,71.9457846 C209.066185,69.5859239 211.383909,67.678206 214.239031,67.6837495 L215.90641,67.6880352 C219.035905,69.967553 219.44179,73.3624703 219.76,76.2475517 L214.215307,76.2355857 C211.357606,76.2300301 209.050713,74.312483 209.057403,71.9457846" id="Fill-18" fill="#DAEDEC"></path>
                    <path d="M86.9258724,30.5739401 C119.812095,30.8864902 137.094877,40.381642 150.997956,48.0196199 C152.306506,48.7386499 153.576792,49.4346095 154.830909,50.1091465 L152.026257,54.8380463 L90.7264893,54.6886374 L64.8152505,54.6260175 L35.9948044,54.599102 C33.9818572,54.599102 29.9608132,53.4966625 29.9672727,49.3972573 C29.9769815,45.4626413 35.4698752,38.313538 44.5909245,35.1528817 C53.7141295,31.9922255 72.5167273,30.6805038 84.6860307,30.5909683 L86.9258724,30.5739401" id="Fill-19" fill="#B3D4D4"></path>
                    <polyline id="Fill-20" fill="#B68C5A" points="86.3342857 29.390369 93.340964 28.4329896 99.8909091 78.1458233 92.8811378 79.1021524 86.3342857 29.390369"></polyline>
                    <polyline id="Fill-21" fill="#B68C5A" points="40.832124 30.5739401 42.8103896 30.586299 42.6490152 68.3973997 40.6698701 68.3850408 40.832124 30.5739401"></polyline>
                    <path d="M56.367013,98.2470448 C56.5390181,96.9185363 56.7540246,95.476728 56.7726054,94.0888063 L158.83589,94.0888063 C158.842792,95.5043621 158.946313,97.0138739 159.111948,98.3707073 L56.367013,98.2470448" id="Fill-22" fill="#101B1E"></path>
                    <path d="M201.208831,98.2965044 C201.331808,97.1332076 201.478619,95.5237427 201.482432,94.0888063 L215.478961,94.0888063 C214.950349,94.717652 214.356436,95.2480285 213.716763,95.7349425 C209.38396,99.0530208 203.619758,98.2965044 201.208831,98.2965044" id="Fill-23" fill="#101B1E"></path>
                    <path d="M107.025974,61.617723 C107.025974,62.2082016 106.503082,62.6881983 105.858828,62.6881983 L99.633749,62.6881983 C98.9890441,62.6881983 98.4638961,62.2082016 98.4638961,61.617723 C98.4638961,61.026003 98.9890441,60.5472477 99.633749,60.5472477 L105.858828,60.5472477 C106.503082,60.5472477 107.025974,61.026003 107.025974,61.617723" id="Fill-24" fill="#A6784B"></path>
                    <path d="M167.674026,68.0393342 C167.674026,68.6318375 167.061901,69.1110499 166.304284,69.1110499 L163.33889,69.1110499 C162.581802,69.1110499 161.965974,68.6318375 161.965974,68.0393342 C161.965974,67.4497252 162.581802,66.9700994 163.33889,66.9700994 L166.304284,66.9700994 C167.061901,66.9700994 167.674026,67.4497252 167.674026,68.0393342" id="Fill-25" fill="#B68C5A"></path>
                    <path d="M184.798182,89.764348 L186.731011,88.3796048 C188.082557,89.5639129 188.929534,91.0455257 189.079221,92.6615059 L186.351805,92.6615059 C186.217087,91.5780849 185.669483,90.5861766 184.798182,89.764348" id="Fill-26" fill="#56636C"></path>
                    <path d="M176.643313,90.5205553 L174.809091,88.6760717 C176.370851,87.3176384 178.346943,86.4273421 180.517143,86.2386543 L180.517143,88.8587884 C179.05214,89.0325484 177.725445,89.6230937 176.643313,90.5205553" id="Fill-27" fill="#56636C"></path>
                    <path d="M173.966083,92.6615059 L171.241558,92.6615059 C171.388576,91.040325 172.240655,89.5598638 173.592595,88.3796048 L175.522597,89.7573182 C174.65175,90.5779601 174.102466,91.5723797 173.966083,92.6615059" id="Fill-28" fill="#56636C"></path>
                    <path d="M181.230649,88.860263 L181.230649,86.2386543 C183.408675,86.4267249 185.383308,87.306584 186.938701,88.6685987 L185.10342,90.5205553 C184.023005,89.6209309 182.698282,89.0327609 181.230649,88.860263" id="Fill-29" fill="#56636C"></path>
                    <path d="M186.438636,94.8024564 L189.079221,94.8024564 C188.851563,96.4353065 187.978176,97.9115693 186.657884,99.0843575 L184.798182,97.6533619 C185.657753,96.8542584 186.235006,95.8819389 186.438636,94.8024564" id="Fill-30" fill="#56636C"></path>
                    <path d="M175.522597,97.6579825 L173.670768,99.0843575 C172.345198,97.9073552 171.470105,96.4310131 171.241558,94.8024564 L173.868642,94.8024564 C174.073732,95.8795246 174.660736,96.8538826 175.522597,97.6579825" id="Fill-31" fill="#56636C"></path>
                    <path d="M179.803636,100.617423 L179.803636,103.366259 C178.184674,103.174625 176.710486,102.329555 175.522597,101.019538 L176.953632,99.0843575 C177.763809,99.9156055 178.739641,100.44778 179.803636,100.617423" id="Fill-32" fill="#56636C"></path>
                    <path d="M182.645756,99.0843575 L184.084675,101.024711 C182.895317,102.330778 181.417897,103.17816 179.803636,103.366259 L179.803636,100.624767 C180.865894,100.454791 181.833059,99.9148664 182.645756,99.0843575" id="Fill-33" fill="#56636C"></path>
                    <path d="M39.9563636,89.764348 L41.8913035,88.3796048 C43.2387842,89.5639129 44.0897591,91.0455257 44.2374026,92.6615059 L41.5119158,92.6615059 C41.3773546,91.5780849 40.8291424,90.5861766 39.9563636,89.764348" id="Fill-34" fill="#56636C"></path>
                    <path d="M31.7982918,90.5205553 L29.9672727,88.6760717 C31.5268757,87.3176384 33.4992449,86.4273421 35.6753247,86.2386543 L35.6753247,88.8587884 C34.2095592,89.0325484 32.8827682,89.6230937 31.7982918,90.5205553" id="Fill-35" fill="#56636C"></path>
                    <path d="M29.1296691,92.6615059 L26.3997403,92.6615059 C26.5505339,91.040325 27.4021116,89.5598638 28.7529977,88.3796048 L30.6807792,89.7573182 C29.8098049,90.5779601 29.2641946,91.5723797 29.1296691,92.6615059" id="Fill-36" fill="#56636C"></path>
                    <path d="M36.3888312,88.860263 L36.3888312,86.2386543 C38.5643439,86.4267249 40.540573,87.306584 42.0968831,88.6685987 L40.2629994,90.5205553 C39.1841397,89.6209309 37.8585478,89.0327609 36.3888312,88.860263" id="Fill-37" fill="#56636C"></path>
                    <path d="M41.5965877,94.8024564 L44.2374026,94.8024564 C44.011579,96.4353065 43.1335096,97.9115693 41.8152042,99.0843575 L39.9563636,97.6533619 C40.8140129,96.8542584 41.3911844,95.8819389 41.5965877,94.8024564" id="Fill-38" fill="#56636C"></path>
                    <path d="M30.6807792,97.6579825 L28.829308,99.0843575 C27.5036522,97.9078179 26.6280944,96.4310131 26.3997403,94.8024564 L29.0258127,94.8024564 C29.2307305,95.8795246 29.8202447,96.8538826 30.6807792,97.6579825" id="Fill-39" fill="#56636C"></path>
                    <path d="M34.9618182,100.617244 L34.9618182,103.366259 C33.3423416,103.175198 31.8680243,102.329879 30.6807792,101.019478 L32.1096473,99.0843575 C32.9230957,99.9152211 33.8974715,100.447552 34.9618182,100.617244" id="Fill-40" fill="#56636C"></path>
                    <g id="Group-44" transform="translate(0.000000, 80.529453)">
                        <mask id="mask-6" fill="white">
                            <use xlink:href="#path-5"></use>
                        </mask>
                        <g id="Clip-42"></g>
                        <path d="M38.3194571,18.7468165 L39.926243,20.4227599 C38.5950396,21.5508506 36.9415448,22.2827602 35.1375435,22.4452268 L35.1375435,20.0773158 C36.3239494,19.9305021 37.4075957,19.4641526 38.3194571,18.7468165" id="Fill-41" fill="#56636C" mask="url(#mask-6)"></path>
                        <path d="M18.5314939,0.106331995 C15.7159856,3.68869469 13.930149,8.26258974 13.8460729,13.2466996 C13.8336172,14.0379824 13.8673514,14.81847 13.9332629,15.589242 C13.9223641,15.8699153 13.9114654,16.1511284 13.9073135,16.4350402 C13.9062755,16.5359746 13.9093894,16.4631075 13.9078325,16.5640419 C11.9252995,16.63475 8.50309454,16.5570251 5.33259866,14.5124282 C2.62867272,12.7744128 1.1858869,9.40687314 0.508088962,5.91357024 C0.179050758,4.23708711 0.0301012868,2.53037763 0.00155696311,0.957527711 C-0.00415190163,0.686030282 -0.0373671147,0.152211282 0.932101916,0.152211282 C1.90001398,0.152211282 18.5314939,0.106331995 18.5314939,0.106331995" id="Fill-43" fill="#A6784B" mask="url(#mask-6)"></path>
                    </g>
                    <g id="Group-47" transform="translate(0.000000, 80.529453)">
                        <mask id="mask-8" fill="white">
                            <use xlink:href="#path-7"></use>
                        </mask>
                        <g id="Clip-46"></g>
                        <path d="M-14.5635413,17.362835 C-14.3878007,16.2751833 -14.1645775,15.094773 -14.1476584,13.9584796 L90.7798074,13.9584796 C90.787994,15.1173971 90.8933292,16.3532364 91.0647035,17.4640777 L-14.5635413,17.362835" id="Fill-45" fill="#101B1E" mask="url(#mask-8)"></path>
                    </g>
                    <path d="M4.75556765,66.9700994 L7.76340737,66.9700994 C10.1732317,66.9715369 12.1276367,65.0560484 12.1296104,62.6913374 C12.1296104,60.3251742 10.1766856,58.4067813 7.76686125,58.4062972 L6.83381911,58.4062972 C6.83381911,58.4062972 6.33744661,58.4571252 6.23531032,58.8593923 C5.88104049,60.2443335 4.89767032,63.9450941 4.30310883,66.3911298 C4.16051275,66.9812184 4.75556765,66.9700994 4.75556765,66.9700994" id="Fill-48" fill="#DA324E"></path>
                    <path d="M235.457143,116.211962 L129.144675,116.211962 C129.144675,116.211962 136.819541,88.2001523 166.616456,88.3804717 C186.391984,88.3804717 190.992209,103.3558 201.214162,103.3558 C211.434514,103.3558 209.901995,101.12745 218.251638,101.12745 C232.73296,101.12745 235.457143,116.211962 235.457143,116.211962" id="Fill-49" fill="#63B9B4"></path>
                    <path d="M239.738182,116.211962 L177.663117,116.211962 L236.296153,116.211962 C236.296153,116.211962 233.710977,101.716616 220.260595,100.754001 C220.865751,100.721687 221.533696,100.704113 222.279045,100.704113 C236.972759,100.704113 239.738182,116.211962 239.738182,116.211962 M201.548385,102.995 C198.82464,102.995 196.494951,101.933743 194.176088,100.368502 C194.46351,99.7233569 194.714666,99.0566696 194.925226,98.3707073 C197.906622,100.726789 200.673127,102.623673 203.987955,102.946246 C203.254514,102.977993 202.445835,102.995 201.548385,102.995" id="Fill-50" fill="#C5E4DF"></path>
                    <path d="M193.432884,100.511658 C192.240028,99.5398416 191.04995,98.3796298 189.792727,97.1573996 C190.008053,96.4044029 190.166884,95.6168865 190.262276,94.8024564 C191.620446,96.0434091 192.867481,97.2995739 194.073766,98.4498393 C193.893634,99.1577849 193.678772,99.8458379 193.432884,100.511658" id="Fill-51" fill="#547275"></path>
                    <path d="M189.23233,98.3707073 C188.674143,98.0024427 188.105456,97.6270686 187.521294,97.2497987 C187.672723,96.8028571 187.779939,96.339801 187.839626,95.8634741 L185.410131,95.8634741 C185.406816,95.8843282 185.402947,95.9056563 185.399078,95.9269844 C181.966505,93.8766458 177.914953,91.9533278 172.529279,91.0134708 L171.955065,90.5205553 C177.51538,90.9082523 181.808997,92.2941029 185.389683,94.0188329 C185.417316,94.1657597 185.439422,94.3145822 185.454897,94.4653006 L186.287756,94.4653006 C187.534005,95.1051427 188.693486,95.7810056 189.792727,96.4630299 C189.678879,97.1227782 189.489317,97.7607245 189.23233,98.3707073" id="Fill-52" fill="#B2DCD7"></path>
                    <path d="M170.474622,89.2167165 C170.024965,89.1410695 169.566304,89.0825502 169.101039,89.0411585 C169.572307,89.0026214 170.045977,88.9783573 170.528052,88.9697935 C170.510042,89.0511496 170.492031,89.133933 170.474622,89.2167165" id="Fill-53" fill="#547275"></path>
                    <path d="M172.507128,89.5664051 C171.869967,89.2638174 171.21214,89.0311674 170.528052,88.8713098 C170.540537,88.7885264 170.553452,88.7057429 170.566368,88.6243868 C170.664956,88.6215322 170.766127,88.6201049 170.865576,88.6201049 C170.942638,88.6201049 171.018408,88.6215322 171.095901,88.6229595 C171.633614,88.6229595 172.157981,88.6672058 172.668571,88.7514165 C172.613035,89.019749 172.559221,89.2909361 172.507128,89.5664051" id="Fill-54" fill="#B2DCD7"></path>
                    <path d="M187.652208,94.0474145 L186.328818,94.0474145 C186.304229,93.593533 186.269103,93.1453607 186.225195,92.7028976 C186.707306,93.1425061 187.185026,93.593533 187.652208,94.0474145" id="Fill-55" fill="#5D7C80"></path>
                    <path d="M173.382078,89.8069052 C172.920326,89.525807 172.44479,89.279846 171.955065,89.0714456 C172.004119,88.837601 172.054794,88.6073913 172.10709,88.3796048 C172.396142,88.4232235 172.680328,88.4789585 172.960866,88.5468098 L173.382078,89.8069052" id="Fill-56" fill="#5D7C80"></path>
                    <path d="M188.800023,96.2297568 C188.200425,95.7754605 187.581439,95.3187244 186.938701,94.8678439 C186.942094,94.8458854 186.945487,94.8239269 186.948396,94.8024564 L189.079221,94.8024564 C189.026871,95.2928622 188.932836,95.7696049 188.800023,96.2297568" id="Fill-57" fill="#5D7C80"></path>
                    <path d="M235.457143,116.211962 L177.831159,116.211962 C176.409155,109.571831 174.216833,102.357608 170.699862,95.4072474 C169.39064,92.8194233 168.17026,90.5329968 166.960519,88.445294 C167.390898,88.4171415 167.824468,88.3950611 168.264954,88.3796048 C168.677244,88.3956131 169.083683,88.4182455 169.482142,88.4475021 C170.32747,88.5093272 171.140348,88.5993049 171.92769,88.7163311 C172.570331,88.8112768 173.194353,88.9233349 173.800287,89.0514013 C178.984508,90.1460376 182.884511,92.3860952 186.188687,94.7740916 C186.894103,95.2841491 187.573451,95.8008307 188.23152,96.3147522 C188.793831,96.7541524 189.341247,97.1913445 189.878555,97.6202565 C191.322902,98.7734059 192.69011,99.8680422 194.060511,100.784931 C196.339547,102.309032 198.629222,103.342395 201.306185,103.342395 C202.188221,103.342395 202.983011,103.325834 203.703854,103.294922 C204.026239,103.326386 204.354475,103.342395 204.688563,103.342395 C213.985051,103.342395 213.530733,101.486536 219.697004,101.160298 C232.916369,102.097612 235.457143,116.211962 235.457143,116.211962" id="Fill-58" fill="#63BAB4"></path>
                    <g id="man" transform="translate(57.794026, 0.000000)">
                        <path d="M25.3508857,53.4976807 C25.3508857,53.4976807 28.9908855,52.8366631 29.3292791,55.1254497 C29.6676727,57.4142363 26.3712525,58.7499768 26.3712525,58.7499768 L25.3508857,53.4976807" id="Fill-59" fill="#DAEDEC"></path>
                        <path d="M26.6851429,58.9948307 C26.6851429,58.9948307 29.8599438,57.4709865 30.5707464,62.0263393 C31.2803732,66.5812019 28.5347584,69.4317908 28.5347584,69.4317908 L26.6851429,58.9948307" id="Fill-60" fill="#DAEDEC"></path>
                        <path d="M26.6234398,86.2838491 C26.6234398,86.2838491 27.6848451,80.1912066 29.7318004,77.8161282 C31.7787558,75.4410499 36.0249429,62.7556571 36.0249429,62.7556571 L18.939432,62.7556571 L17.3453429,86.7897385 L26.6234398,86.2838491" id="Fill-61" fill="#ED9E8B"></path>
                        <path d="M36.0249429,44.3482418 C36.0249429,44.3482418 38.0567254,42.3893715 39.1989114,48.7290571 C40.3410974,55.0709066 40.0870645,55.4744739 39.7060151,56.5688663 C39.3254467,57.6648816 37.4211618,60.0852036 37.4211618,60.0852036 L36.0249429,44.5786972" id="Fill-62" fill="#ED9E8B"></path>
                        <path d="M38.6478304,62.8025794 C38.8696304,63.9838144 38.2615054,65.0915503 37.2855855,65.2782146 L22.5951274,68.0700125 C21.619769,68.2555101 20.6483412,67.4493537 20.4254182,66.2675354 L14.722632,36.0063365 C14.5002705,34.8245182 15.108957,33.7161989 16.0837539,33.5307013 L30.774212,30.7365701 C31.7490089,30.5516558 32.7209981,31.3595622 32.9444827,32.5396305 L38.6478304,62.8025794" id="Fill-63" fill="#1C2B2F"></path>
                        <polyline id="Fill-64" fill="#3A6080" points="37.3592 60.0211631 21.5355631 62.7556571 16.0110857 36.1156999 31.8364293 33.3806686 37.3592 60.0211631"></polyline>
                        <path d="M30.6708657,63.3200491 C30.5891618,62.955661 30.2324637,62.7073641 29.8723613,62.7636009 C29.513772,62.8218109 29.288708,63.1628492 29.3704119,63.5275662 C29.452494,63.8909677 29.8103269,64.1399223 30.170051,64.0826989 C30.5286404,64.0258044 30.7533261,63.6831217 30.6708657,63.3200491" id="Fill-65" fill="#DEEBEB"></path>
                        <g id="Group-69" transform="translate(0.000000, 44.062483)">
                            <path d="M11.4354059,42.0091314 L13.8072451,31.8316818 C13.8072451,31.8316818 13.4977744,27.3125083 12.6213255,22.4175832 C11.7442993,17.5243507 11.9515754,14.7129847 12.6213255,10.0730742 C13.291653,5.43259951 13.6877294,0.439505142 15.0641814,0.390984677 C15.0641814,0.390984677 16.9013752,-0.781969355 17.7258607,4.64385985 C18.5497688,10.0685607 19.2726371,15.6100491 19.2726371,15.6100491 C19.2726371,15.6100491 23.4291294,21.4539442 23.6196618,24.7787244 C23.808462,28.1040689 22.2616857,40.6985147 22.2616857,40.6985147 L11.4354059,42.0091314" id="Fill-66" fill="#ED9E8B"></path>
                            <path d="M10.4302034,39.1001603 L0.747117806,80.9614736 C0.747117806,80.9614736 -2.48211704,91.9231493 9.66403233,95.57911 C21.8096043,99.233378 28.3731555,71.6297469 28.3731555,71.6297469 L28.8327427,39.1001603 L10.4302034,39.1001603" id="Fill-68" fill="#77648D"></path>
                        </g>
                        <g id="Group-72" transform="translate(0.000000, 84.119285)">
                            <mask id="mask-10" fill="white">
                                <use xlink:href="#path-9"></use>
                            </mask>
                            <g id="Clip-71"></g>
                            <polyline id="Fill-70" fill="#857695" mask="url(#mask-10)" points="26.7709516 -2.8243115 20.7304983 29.9348402 33.8021731 20.5186341 33.1249171 -4.66242538 26.7709516 -2.8243115"></polyline>
                        </g>
                        <path d="M26.9456637,50.6414755 C29.5576439,50.1278405 31.1177217,47.7889759 30.5834055,45.1621877 C30.0506577,42.543626 27.6959022,40.975471 25.0839221,41.489106 C22.471942,42.0032552 20.9197064,44.3400632 21.4524542,46.958625 C21.9867704,49.5854131 24.3336836,51.1556247 26.9456637,50.6414755 Z M25.2632474,42.3518483 C27.3994665,41.9317885 29.2690504,43.1909398 29.7050775,45.3349419 C30.1431958,47.4866562 28.909877,49.3571309 26.7736579,49.7771908 C24.647895,50.195194 22.7678549,48.9375852 22.3302593,46.786385 C21.8942322,44.6423829 23.1374846,42.7698516 25.2632474,42.3518483 Z M28.8795537,48.0080034 L28.1476138,44.4094734 C28.073897,44.046484 27.9013682,43.9302863 27.5427176,44.0012389 L26.815483,44.1441724 L27.6504174,48.2496536 L28.8795537,48.0080034 Z M24.4445203,44.6105057 L23.7204225,44.752925 C23.3497472,44.8259342 23.2446615,44.9966317 23.3183783,45.359621 L24.0508411,48.9581511 L25.2799775,48.7159869 L24.4445203,44.6105057 Z M27.1234206,48.3529975 L26.2210432,43.9174326 C26.1954253,43.7904377 26.1996078,43.7277115 26.235682,43.6588156 L26.3371079,43.57758 L26.4510814,43.5549574 L26.5159104,43.5421037 L26.4103019,43.0243555 L25.3223254,43.2382415 C24.949036,43.3117649 24.8502241,43.4629247 24.9276007,43.8418527 L25.8942842,48.5951618 L27.1234206,48.3529975 L27.1234206,48.3529975 Z" id="Fill-73" fill="#FFFFFF"></path>
                        <path d="M40.0764878,69.4317908 C38.2766963,66.8280933 30.5609455,57.1630237 30.6895021,54.9827376 C30.748473,53.9846159 32.0540884,53.0288354 33.2789137,53.5617691 C34.503739,54.0952674 44.0304857,64.3965831 44.0304857,64.3965831 L40.3076537,69.1325801" id="Fill-74" fill="#ED9E8B"></path>
                        <path d="M42.5474492,65.4261105 L44.0304857,64.3025178 C44.0304857,64.3025178 35.7546811,55.2149364 34.6906857,54.7442966 C34.6906857,54.7442966 43.9997492,65.4479903 42.5474492,65.4261105" id="Fill-75" fill="#DD8677"></path>
                        <path d="M45.3647429,80.1136048 C43.6254763,79.790885 43.1308363,79.8628925 42.0076122,79.0166729 C40.8848898,78.1709789 37.2398044,74.5721805 37.3622103,72.518127 C37.4846161,70.4640736 40.3385785,69.4317908 40.3385785,69.4317908 L45.3647429,80.1136048" id="Fill-76" fill="#ED9E8B"></path>
                        <path d="M50.8460352,80.2647201 C53.3722358,80.9608532 64.4575878,96.1363257 64.4575878,96.1363257 L74.7184,85.0339238 L64.7314714,74.1764362 C63.2412904,72.3110529 63.8017695,70.5586184 63.1060821,68.8955055 C62.6253412,67.7487299 60.9138576,64.1441662 55.7730509,60.8375336 C51.3845574,58.0143909 38.6778607,63.7148456 40.1449292,68.3607277 C40.3304073,68.9467935 43.1518706,77.4196792 47.0994925,79.3922485 C47.0994925,79.3922485 48.8912921,79.7264847 50.8460352,80.2647201" id="Fill-77" fill="#ED9E8B"></path>
                        <path d="M43.4148057,77.1043684 C41.8093185,76.4233311 40.0277143,70.7670175 40.0277143,70.7670175 C40.0277143,70.7670175 42.6042779,77.0545016 45.3647429,77.3185579 C45.3647429,77.3185579 44.8451488,77.710368 43.4148057,77.1043684" id="Fill-78" fill="#DD8677"></path>
                        <path d="M66.7991371,63.3423024 L69.1124607,63.3423024 C69.1124607,63.3423024 75.6023331,63.9961065 77.2182326,64.3931783 C78.2920717,64.6577072 79.3733363,65.0820672 80.4591704,65.6840793 C84.5848832,64.7094992 88.3924426,63.1061756 91.4917251,61.4204303 C109.506519,76.1115302 114.415906,81.0618406 122.509683,96.0909806 C131.842944,113.421244 132.487247,132.378777 133.425714,140.198808 L30.6879143,140.198808 C30.6879143,140.198808 34.469725,123.527362 36.3449451,117.146367 C31.6737449,121.744715 36.0781989,90.0853391 36.0781989,90.0853391 C36.0781989,90.0853391 61.2562993,63.2342632 66.7991371,63.3423024 Z" id="Fill-79" fill="#77648D"></path>
                        <g id="Group-82" transform="translate(30.687914, 104.147686)">
                            <mask id="mask-12" fill="white">
                                <use xlink:href="#path-11"></use>
                            </mask>
                            <g id="Clip-81"></g>
                            <polygon id="Fill-80" fill="#705F85" mask="url(#mask-12)" points="-0.675627426 36.0511221 47.3804259 35.4295511 47.3804259 0.414868614 0.283173887 0.414868614"></polygon>
                        </g>
                        <g id="Group-86" transform="translate(52.036029, 0.000000)">
                            <mask id="mask-14" fill="white">
                                <use xlink:href="#path-13"></use>
                            </mask>
                            <g id="Clip-84"></g>
                            <path d="M37.2555287,60.5564101 L35.5554365,46.5891554 L23.4009693,19.6885206 L5.37113315,14.7101213 C5.37113315,14.7101213 -3.57450927,38.752965 4.7351601,50.2244838 C5.88047943,51.7539818 12.3219779,51.0582904 12.3219779,51.0582904 C12.3219779,51.0582904 12.5559252,55.1386567 12.7081044,62.5173049 C12.8063396,67.330307 36.0131099,69.4480734 37.2555287,60.5564101" id="Fill-83" fill="#ED9E8B" mask="url(#mask-14)"></path>
                            <path d="M30.7101167,49.5145831 C36.2657956,49.3758995 36.0034568,47.2785946 35.9035181,46.6835057 C35.8030117,46.0889851 35.2346108,41.5584655 37.1203844,37.8850559 C39.0033189,34.2139199 44.6719966,32.1240039 44.7432817,19.2377989 C44.7849954,12.1643683 40.4893381,10.1096915 37.4707375,8.53983896 C35.4793468,2.1956338 26.9675289,-2.51733423 17.190011,1.47038691 C6.89179015,5.67068042 -2.00274729,2.55882562 0.862538456,13.5790544 C1.39743722,15.6348679 2.45190326,17.970322 6.41821736,20.6274766 C7.10983806,24.7965094 6.91052865,29.8584599 9.09271119,30.2557542 C11.2731902,30.6541853 10.3816923,26.0872897 14.4490807,27.3775017 C18.5153334,28.6677136 18.4159626,32.3405548 18.4159626,33.0345411 C18.5153334,37.4030737 16.2337801,37.6997656 16.1349771,41.3748803 C16.0344707,45.0471532 22.7780564,49.7140828 30.7101167,49.5145831" id="Fill-85" fill="#1C2B2F" mask="url(#mask-14)"></path>
                        </g>
                        <path d="M35.6897944,89.460192 L72.0498857,99.4201511 C72.0498857,99.4201511 26.3699699,138.087344 12.1241381,139.702792 C14.8267997,118.674332 17.45289,108.800466 17.45289,108.800466 L35.6897944,89.460192 Z" id="Fill-87" fill="#77648D"></path>
                    </g>
                </g>
            </g>
        </g>
    </g>
</svg>