<?xml version="1.0" encoding="UTF-8"?>
<svg width="183px" height="120px" viewBox="0 0 183 120" version="1.1" xmlns="http://www.w3.org/2000/svg" xmlns:xlink="http://www.w3.org/1999/xlink">
    <title>illu container quadrat desktop</title>
    <defs>
        <polygon id="path-1" points="0 0.104497428 183.52398 0.104497428 183.52398 32.777264 0 32.777264"></polygon>
    </defs>
    <g id="Symbols" stroke="none" stroke-width="1" fill="none" fill-rule="evenodd">
        <g id="Molecule-/-Stage-/-Desktop-/-Stage-Title-Illustrations-Backgroundimage-[Flex]" transform="translate(-32.000000, -117.000000)">
            <g id="Group" transform="translate(32.000000, 83.000000)">
                <g id="Group-14" transform="translate(0.000000, 34.500000)">
                    <g id="Group-3" transform="translate(0.000000, 85.837771)">
                        <mask id="mask-2" fill="white">
                            <use xlink:href="#path-1"></use>
                        </mask>
                        <g id="Clip-2"></g>
                    </g>
                    <g id="Group-6" transform="translate(3.630963, 85.837771)" fill="#A6D6D9">
                        <path d="M0.0250396355,32.7773481 L179.171101,32.7773481 C179.171101,32.7773481 164.219256,-0.429382159 142.439477,0.111022476 C120.661166,0.650586669 116.219595,12.7479184 106.805579,12.7815361 C93.6122992,12.7815361 87.2234563,4.51830382 75.1484625,10.3669443 C60.6937147,17.3678318 53.4112709,28.5759752 27.5181374,20.1379308 C11.0918871,14.784311 0.0250396355,32.7773481 0.0250396355,32.7773481" id="Fill-4"></path>
                    </g>
                    <polygon id="Fill-7" fill="#B98447" points="48.4611534 118.615035 53.4226736 118.615035 53.4226736 97.5947239 48.4611534 97.5947239"></polygon>
                    <path d="M24.0886443,73.2098682 C24.1021381,72.7316563 24.1190054,72.2441996 24.1459931,71.7525406 C24.7346624,60.950331 28.463182,51.6331836 33.1059101,42.0378496 C37.3235819,33.3216187 41.3675203,24.3885536 42.3011261,14.6410996 C42.7767843,9.71610554 43.5999092,-3.23091375 51.96441,0.749422727 C58.8395271,4.02294692 59.95783,15.0873746 60.5220416,21.7571276 C61.219505,30.0094342 60.9622785,38.5449699 64.4242946,46.2627549 C66.0519903,49.889265 68.4159443,52.9476359 70.5943579,56.2320859 C73.6009565,60.7612314 75.1097377,65.4929236 75.2767241,70.9062148 C75.5111798,78.4466664 73.821075,85.9904798 69.3740078,92.1643717 C66.2645185,96.484247 61.3915516,101.942922 56.2242501,103.595232 C48.3261305,106.123284 39.18742,102.041254 33.6650615,96.4287778 C26.8641607,89.5194986 23.8778028,82.6942637 24.0886443,73.2098682" id="Fill-9" fill="#A6D6D9"></path>
                    <polygon id="Fill-10" fill="#B98447" points="90.0163105 118.615035 94.2685602 118.615035 94.2685602 100.609392 90.0163105 100.609392"></polygon>
                    <path d="M68.7730254,79.7290139 C68.6659179,76.2327724 69.2039852,72.7104771 70.4656603,69.3520682 C73.6738233,60.7896384 81.5812199,53.9585204 83.3337338,44.9758691 C84.1509552,40.7803793 84.2226413,36.4210032 84.2226413,32.0902021 C84.2226413,26.6231226 84.7657687,12.4103966 93.9095394,17.4690211 C99.8375568,20.7492688 100.583935,30.9631685 101.137183,36.7605421 C101.743563,43.1310975 103.346801,48.5964961 106.050632,54.424966 C111.967685,67.1669173 117.025349,83.3378747 107.933024,95.9562809 C105.270519,99.6559095 101.095015,104.332133 96.662285,105.749959 C89.8976489,107.91494 82.0729021,104.416177 77.3365605,99.6088447 C72.0832357,94.2711933 69.0041076,87.0610357 68.7730254,79.7290139" id="Fill-11" fill="#6BBEC3"></path>
                    <polygon id="Fill-12" fill="#B98447" points="17.1014439 118.615035 20.6224957 118.615035 20.6224957 103.698859 17.1014439 103.698859"></polygon>
                    <path d="M-0.0424092453,86.3901944 C0.0503609794,72.374132 9.15112002,60.3742916 9.92954654,46.3632719 C10.1606287,42.2215704 12.3010908,30.5906843 19.1483768,33.5213079 C23.7345993,35.4871033 23.5895404,45.3623047 24.1723061,49.3586095 C25.5773534,58.9707523 29.2923792,67.8928917 33.1710179,76.6545065 C36.6996599,84.6269456 37.2537512,92.4699566 31.9456076,99.8440006 C29.7368329,102.909095 26.2765035,106.783536 22.6070194,107.957634 C17.0020111,109.750298 10.5182158,106.852452 6.59909548,102.870435 C1.63673182,97.8319808 -0.0820474322,92.2413562 -0.0424092453,86.3901944" id="Fill-13" fill="#6BBEC3"></path>
                </g>
            </g>
        </g>
    </g>
</svg>