<?xml version="1.0" encoding="UTF-8"?>
<svg width="184px" height="125px" viewBox="0 0 184 125" version="1.1" xmlns="http://www.w3.org/2000/svg" xmlns:xlink="http://www.w3.org/1999/xlink">
    <title>illu container quadrat desktop copy</title>
    <defs>
        <path d="M31.2911746,39.4778439 C29.9333972,39.0486025 28.5010302,38.8026277 27.017434,38.7734817 C22.2871392,38.685602 17.9965954,40.7951557 14.9843214,44.2273205 C14.7191593,44.5209887 14.4605546,44.8186314 14.2240808,45.1308471 L0.235244256,45.6855047 C0.243850753,45.1025843 4.68685246,26.00355 4.68685246,26.00355 C4.68685246,26.00355 6.0044662,21.1101097 6.32741476,20.5395543 C16.8088988,2.13030917 32.6100178,0.536110144 64.2782389,0.290135391 L64.2782389,0.249065998 C64.5634829,0.249065998 64.8179893,0.264080615 65.0974955,0.264963828 C65.1433968,0.26584704 65.1880686,0.264522221 65.2323306,0.263639008 C65.3253628,0.261430976 65.4167556,0.259664551 65.5142959,0.273354349 C97.1157142,0.461920273 111.109879,12.3097778 122.541766,18.1884419 C134.122423,24.1483616 156.910788,29.9263395 162.603781,32.0592983 C163.826313,32.5159193 164.762782,33.1328434 165.519334,33.8460377 L164.194343,33.8451545 C161.925507,33.8380888 160.083716,35.8103029 160.076749,38.2479701 C160.071421,40.6940278 161.904605,42.6763989 164.175491,42.6821398 L168.581608,42.6922967 C168.608247,43.0451402 168.641443,43.3935676 168.67382,43.7225644 C168.721771,44.2365942 168.750869,44.7903686 168.754967,45.3746139 L149.472315,45.3242707 C146.606352,41.5220398 142.292447,39.0393287 137.391252,39.0269638 C132.491696,39.0115075 128.169186,41.4001564 125.286009,45.1913472 L39.3710361,45.1913472 C37.3169521,42.4648694 34.5165619,40.424648 31.2911746,39.4778439" id="path-1"></path>
        <polygon id="path-3" points="0.0242087943 0.088252001 31.0401126 0.088252001 31.0401126 18.6287879 0.0242087943 18.6287879"></polygon>
        <path d="M14.781224,0.0897322989 C12.5354979,3.11238984 11.111066,6.97270067 11.0440047,11.1791869 C11.0340697,11.8464854 11.060977,12.5051296 11.1135497,13.1555749 C11.1048566,13.3924317 11.0961635,13.6297441 11.0928518,13.8693339 C11.0920239,13.9545112 11.0945076,13.8930195 11.0932658,13.9781969 C9.51194345,14.0378666 6.78229965,13.9722755 4.25342584,12.2468646 C2.09670091,10.7801742 0.945895673,7.93834775 0.405265586,4.9903912 C0.192177993,3.84171958 0.0737817374,2.67593279 0.0245973442,1.56787476 L0.0248924953,0.510285532 C0.0787361872,0.315785672 0.24480869,0.128449281 0.743469859,0.128449281 L1.0118036,0.128047863" id="path-5"></path>
        <path d="M24.122059,0.147309596 L23.7375591,28.1784297 C23.7375591,28.1784297 18.2463586,51.964797 8.08512603,48.8158721 C-2.07658961,45.6654887 0.625536994,36.2196862 0.625536994,36.2196862 L0.625536994,36.2196862 L8.72660335,0.147309596" id="path-7"></path>
        <path d="M39.3641543,31.3761117 L0.235263832,31.3761117 C0.235263832,31.3761117 2.58219879,15.162759 3.83218642,10.4280026 L12.2546316,0.367404147 C20.9099642,18.3879197 25.4469916,31.3761117 39.3641543,31.3761117 L39.3641543,31.3761117 Z" id="path-9"></path>
        <polygon id="path-11" points="0.258647679 0 36.3321649 0 36.3321649 59.3737289 0.258647679 59.3737289"></polygon>
    </defs>
    <g id="Symbols" stroke="none" stroke-width="1" fill="none" fill-rule="evenodd">
        <g id="Molecule-/-Stage-/-Desktop-/-Stage-Title-Illustrations-Backgroundimage-[Flex]" transform="translate(-969.000000, -111.000000)">
            <g id="Group" transform="translate(969.000000, 72.000000)">
                <g id="man_using_allianz_car_app_on_smartphone" transform="translate(0.000000, 39.472626)">
                    <path d="M95.4761513,39.4726257 L95.4757607,39.4726257 C95.4527104,39.4726257 95.4292694,39.4722083 95.4058284,39.4713736 C93.4656963,39.4713736 93.4942162,37.3673522 91.2333333,36.9094844 C91.7162176,36.4649729 92.2803639,36.1832402 92.9374928,36.1832402 C95.7937767,36.1832402 95.8887127,38.2455234 97.3666667,38.7317731 C97.3615878,38.7351122 97.3568996,38.7388686 97.3518207,38.7422077 C97.3377561,38.7522248 97.3236915,38.762242 97.3096269,38.7722591 C97.3080642,38.7730939 97.3068922,38.7739287 97.3057201,38.7747634 C96.6853154,39.2088404 96.0809287,39.4713736 95.4796675,39.4726257 C95.4784954,39.4726257 95.4773234,39.4726257 95.4761513,39.4726257" id="Fill-1" fill="#F6FAF9"></path>
                    <path d="M40.6333333,61.2648045 C40.6333333,61.945219 40.2126947,62.498324 39.6909865,62.498324 L34.6756801,62.498324 C34.1568804,62.498324 33.7333333,61.945219 33.7333333,61.2648045 C33.7333333,60.5829595 34.1568804,60.0312849 34.6756801,60.0312849 L39.6909865,60.0312849 C40.2126947,60.0312849 40.6333333,60.5829595 40.6333333,61.2648045" id="Fill-5" fill="#31506D"></path>
                    <polygon id="Fill-6" fill="#101B1E" points="118.833333 90.4581006 155.633333 90.4581006 155.633333 68.2547486 118.833333 68.2547486"></polygon>
                    <polyline id="Fill-7" fill="#101B1E" points="9.2 90.4581006 52.1333333 90.4581006 51.2185078 68.2547486 11.0834168 70.9505129 9.2 90.4581006"></polyline>
                    <path d="M31.7083903,72.7659246 C30.3556061,72.3386424 28.9285065,72.0937903 27.4503662,72.0647773 C22.7374669,71.9772988 18.4627014,74.0772237 15.4615048,77.4937228 C15.1973179,77.7860507 14.9396641,78.0823348 14.70406,78.3931254 L0.766666667,78.9452514 C0.775241514,78.3649916 5.20231263,59.3531323 5.20231263,59.3531323 C5.20231263,59.3531323 6.51467258,54.4820275 6.83643351,53.9140762 C17.2793724,35.5888576 33.0223836,34.0019351 64.5741464,33.7570831 L64.5741464,33.7162011 C64.8583413,33.7162011 65.1119118,33.7311472 65.3903902,33.7320264 C65.532896,33.7342243 65.6627437,33.7201574 65.8060661,33.7403786 C97.2908635,33.9280838 111.233565,45.7218635 122.623412,51.5736952 C134.161481,57.5064117 156.866044,63.2580167 162.538101,65.3812399 C163.756137,65.8357767 164.689163,66.449885 165.442932,67.159824 L164.122814,67.1589448 C161.862321,67.1519114 160.027304,69.1151236 160.020362,71.5416644 C160.015054,73.9765574 161.841497,75.9498802 164.104031,75.9555949 L168.493945,75.9657055 C168.520486,76.3169384 168.55356,76.6637755 168.585818,76.9912706 C168.633592,77.5029542 168.662583,78.054201 168.666667,78.6357795 L149.454926,78.5856662 C146.599502,74.80079 142.301461,72.329411 137.41829,72.3171024 C132.536752,72.3017167 128.230137,74.679463 125.357563,78.4533494 L39.7585386,78.4533494 C37.7120084,75.7393162 34.9219164,73.7084071 31.7083903,72.7659246" id="Fill-8" fill="#B68C5A"></path>
                    <g id="Group-11" transform="translate(0.766667, 32.893855)">
                        <mask id="mask-2" fill="white">
                            <use xlink:href="#path-1"></use>
                        </mask>
                        <g id="Clip-10"></g>
                        <path d="M15.7658733,8.6740325 C15.6220219,8.82859473 14.0117872,23.3110759 8.32863027,23.3110759 C8.32863027,23.3110759 4.80939259,23.276189 4.69791796,23.276189 C5.03971885,22.038808 5.12332482,19.3617901 5.2860286,19.0734211 C7.98682938,14.3283606 11.5056572,11.6456018 15.0921076,8.86833931 L15.7658733,8.6740325" id="Fill-9" fill="#B3D4D4" mask="url(#mask-2)"></path>
                    </g>
                    <path d="M121.192791,88.4561138 C121.191163,89.4189444 121.278265,90.3593419 121.409732,91.2804469 L68.6259391,91.1431561 L64.0429103,91.1305935 L42.7245001,91.2248127 C42.8624794,90.3055024 42.9520235,89.3664509 42.9556866,88.4045175 C42.963827,84.3010464 41.2747001,80.257696 39.1,77.3005587 L124.966667,77.3005587 C122.780163,80.2473768 121.201745,84.3548859 121.192791,88.4561138" id="Fill-12" fill="#A6784B"></path>
                    <path d="M164.317886,88.9240301 C164.063522,89.0411595 152.98552,90.4581006 152.98552,90.4581006 C153.132351,89.6247733 153.233406,88.7731446 153.235997,87.8987407 C153.244634,84.1815073 151.806981,80.8042748 149.5,78.122905 C149.5,78.122905 168.767743,78.1460869 169.819748,78.1672353 C170.873911,78.1867568 170.995263,78.811854 170.96201,79.1441274 C170.623002,82.7137289 168.311702,87.1044566 164.317886,88.9240301" id="Fill-13" fill="#A6784B"></path>
                    <path d="M124.20198,87.3430215 C124.323942,79.8528289 130.086119,73.8824632 137.071244,74.0132826 C144.05637,74.1436555 149.619994,80.3229751 149.498033,87.8158467 C149.376071,95.3105041 143.616391,101.277744 136.631682,101.146479 C129.645308,101.014766 124.079602,94.8381255 124.20198,87.3430215" id="Fill-14" fill="#49545B"></path>
                    <path d="M128.801401,87.4158038 C128.885242,82.1929288 132.899917,78.0335208 137.771538,78.1243652 C142.640632,78.2147577 146.515431,82.5228612 146.432011,87.7452842 C146.346485,92.970871 142.33476,97.1275672 137.46356,97.0353669 C132.593624,96.9454264 128.715454,92.6436503 128.801401,87.4158038" id="Fill-15" fill="#DAEDEC"></path>
                    <path d="M14.5686339,88.1649573 C14.6901835,80.6747839 20.4521367,74.7056823 27.4374954,74.8356007 C34.4241029,74.9677514 39.9866646,81.1471332 39.8646987,88.6373065 C39.7452304,96.1332837 33.9824447,102.097921 26.9983348,101.968895 C20.011311,101.837638 14.446668,95.660488 14.5686339,88.1649573" id="Fill-16" fill="#49545B"></path>
                    <path d="M18.4014014,87.4171879 C18.4852481,82.1943128 22.5006226,78.032645 27.3708968,78.1243934 C32.2420137,78.2156897 36.1166605,82.5224374 36.0319711,87.7466683 C35.947703,92.9722551 31.9348566,97.1266915 27.0650036,97.0353952 C22.1943081,96.9436468 18.3154479,92.6427747 18.4014014,87.4171879" id="Fill-17" fill="#DAEDEC"></path>
                    <path d="M159.466667,70.2934457 C159.473587,68.253977 161.299885,66.605265 163.549638,66.6100559 L164.863484,66.6137597 C167.329434,68.5837933 167.64926,71.5177917 167.9,74.0111732 L163.530944,74.0008318 C161.27916,73.9960304 159.461395,72.3388237 159.466667,70.2934457" id="Fill-18" fill="#DAEDEC"></path>
                    <path d="M66.3662223,36.1832402 C91.4046051,36.4374671 104.563092,44.16078 115.148394,50.3734763 C116.144677,50.958332 117.111827,51.5244223 118.066667,52.0730876 L115.931305,55.9195531 L69.2598748,55.7980246 L49.5319927,55.7470899 L27.5891451,55.7251969 C26.0565597,55.7251969 22.995082,54.8284776 23,51.4940402 C23.0073919,48.2936416 27.189483,42.4785937 34.1339207,39.9077304 C41.0799997,37.3368671 55.3956192,36.2699186 64.6608877,36.1970909 L66.3662223,36.1832402" id="Fill-19" fill="#B3D4D4"></path>
                    <polyline id="Fill-20" fill="#B68C5A" points="65.9333333 34.5086392 71.084559 33.7162011 75.9 74.8642972 70.7465004 75.6558659 65.9333333 34.5086392"></polyline>
                    <polyline id="Fill-21" fill="#B68C5A" points="30.8410093 36.1832402 32.9666667 36.1931823 32.793269 66.6100559 30.6666667 66.6001138 30.8410093 36.1832402"></polyline>
                    <path d="M42.9333333,91.1854485 C43.0655313,90.1648793 43.2307788,89.0572724 43.2450594,87.9910615 L121.68783,87.9910615 C121.693135,89.0785011 121.772698,90.2381183 121.9,91.2804469 L42.9333333,91.1854485" id="Fill-22" fill="#101B1E"></path>
                    <path d="M153.333333,91.2234437 C153.432438,90.3297912 153.550749,89.0933894 153.553822,87.9910615 L164.833333,87.9910615 C164.407336,88.4741451 163.928714,88.8815838 163.413215,89.2556345 C159.921499,91.8046048 155.276249,91.2234437 153.333333,91.2234437" id="Fill-23" fill="#101B1E"></path>
                    <path d="M82.0333333,61.2648045 C82.0333333,61.945219 81.6119454,62.498324 81.0927548,62.498324 L76.0760934,62.498324 C75.5565392,62.498324 75.1333333,61.945219 75.1333333,61.2648045 C75.1333333,60.5829595 75.5565392,60.0312849 76.0760934,60.0312849 L81.0927548,60.0312849 C81.6119454,60.0312849 82.0333333,60.5829595 82.0333333,61.2648045" id="Fill-24" fill="#A6784B"></path>
                    <path d="M128.033333,67.0197997 C128.033333,67.7025473 127.622251,68.2547486 127.113461,68.2547486 L125.122004,68.2547486 C124.613569,68.2547486 124.2,67.7025473 124.2,67.0197997 C124.2,66.3403872 124.613569,65.7877095 125.122004,65.7877095 L127.113461,65.7877095 C127.622251,65.7877095 128.033333,66.3403872 128.033333,67.0197997" id="Fill-25" fill="#B68C5A"></path>
                    <path d="M141.833333,84.9430988 L143.21789,83.8793296 C144.186053,84.7891232 144.792774,85.9273081 144.9,87.1687151 L142.946251,87.1687151 C142.849747,86.3364237 142.457479,85.5744331 141.833333,84.9430988" id="Fill-26" fill="#56636C"></path>
                    <path d="M134.631801,84.701676 L133.4,83.2847311 C134.448825,82.2411734 135.775901,81.5572418 137.233333,81.4122905 L137.233333,83.4250953 C136.249487,83.558579 135.358524,84.0122399 134.631801,84.701676" id="Fill-27" fill="#56636C"></path>
                    <path d="M133.051678,87.1687151 L131.1,87.1687151 C131.205314,85.9233129 131.81569,84.7860126 132.784135,83.8793296 L134.166667,84.9376984 C133.542847,85.568121 133.149374,86.3320409 133.051678,87.1687151" id="Fill-28" fill="#56636C"></path>
                    <path d="M138.766667,83.4262281 L138.766667,81.4122905 C140.229355,81.5567676 141.555451,82.2326814 142.6,83.2789903 L141.367487,84.701676 C140.641918,84.0105783 139.752279,83.5587422 138.766667,83.4262281" id="Fill-29" fill="#56636C"></path>
                    <path d="M143.008451,88.8134078 L144.9,88.8134078 C144.736921,90.0677743 144.111281,91.2018494 143.165507,92.1027933 L141.833333,91.0034927 C142.449076,90.389616 142.862584,89.6426736 143.008451,88.8134078" id="Fill-30" fill="#56636C"></path>
                    <path d="M134.166667,91.0070423 L132.840133,92.1027933 C131.890578,91.1986121 131.263716,90.0644761 131.1,88.8134078 L132.981877,88.8134078 C133.128791,89.6408189 133.549284,90.3893273 134.166667,91.0070423" id="Fill-31" fill="#56636C"></path>
                    <path d="M137.233333,93.2805043 L137.233333,95.3921788 C136.073611,95.2449649 135.017595,94.5957758 134.166667,93.5894121 L135.19177,92.1027933 C135.772129,92.7413637 136.471154,93.1501838 137.233333,93.2805043" id="Fill-32" fill="#56636C"></path>
                    <path d="M140.802582,92.1027933 L141.833333,93.5933861 C140.981352,94.5967159 139.923022,95.2476801 138.766667,95.3921788 L138.766667,93.2861464 C139.527601,93.1555695 140.220418,92.7407958 140.802582,92.1027933" id="Fill-33" fill="#56636C"></path>
                    <path d="M30.6666667,84.9430988 L32.0527357,83.8793296 C33.017986,84.7891232 33.6275708,85.9273081 33.7333333,87.1687151 L31.7809662,87.1687151 C31.6845751,86.3364237 31.2918704,85.5744331 30.6666667,84.9430988" id="Fill-34" fill="#56636C"></path>
                    <path d="M24.2296501,84.701676 L23,83.2847311 C24.0473763,82.2411734 25.3719523,81.5572418 26.8333333,81.4122905 L26.8333333,83.4250953 C25.8489751,83.558579 24.9579475,84.0122399 24.2296501,84.701676" id="Fill-35" fill="#56636C"></path>
                    <path d="M22.6555491,87.1687151 L20.7,87.1687151 C20.8080191,85.9233129 21.4180357,84.7860126 22.3857254,83.8793296 L23.7666667,84.9376984 C23.1427555,85.568121 22.7519146,86.3320409 22.6555491,87.1687151" id="Fill-36" fill="#56636C"></path>
                    <path d="M27.6,83.4262281 L27.6,81.4122905 C29.0610003,81.5567676 30.3881685,82.2326814 31.4333333,83.2789903 L30.2017595,84.701676 C29.477234,84.0105783 28.5870116,83.5587422 27.6,83.4262281" id="Fill-37" fill="#56636C"></path>
                    <path d="M31.8416199,88.8134078 L33.7333333,88.8134078 C33.5715675,90.0677743 32.9425739,91.2018494 31.998223,92.1027933 L30.6666667,91.0034927 C31.2810325,90.389616 31.6944819,89.6426736 31.8416199,88.8134078" id="Fill-38" fill="#56636C"></path>
                    <path d="M23.7666667,91.0070423 L22.4403893,92.1027933 C21.490773,91.1989676 20.8635785,90.0644761 20.7,88.8134078 L22.5811529,88.8134078 C22.7279431,89.6408189 23.150234,90.3893273 23.7666667,91.0070423" id="Fill-39" fill="#56636C"></path>
                    <path d="M26.8333333,93.2803672 L26.8333333,95.3921788 C25.6732423,95.2454045 24.6171343,94.5960249 23.7666667,93.5893657 L24.7902177,92.1027933 C25.372921,92.7410683 26.0709024,93.1500085 26.8333333,93.2803672" id="Fill-40" fill="#56636C"></path>
                    <g id="Group-44" transform="translate(0.000000, 77.300559)">
                        <mask id="mask-4" fill="white">
                            <use xlink:href="#path-3"></use>
                        </mask>
                        <g id="Clip-42"></g>
                        <path d="M29.7909388,15.559231 L31.0401126,16.9502079 C30.0051866,17.8864855 28.7196996,18.493946 27.3172035,18.6287879 L27.3172035,16.6635009 C28.2395585,16.5416504 29.0820246,16.154596 29.7909388,15.559231" id="Fill-41" fill="#56636C" mask="url(#mask-4)"></path>
                        <path d="M14.407057,0.088252001 C12.2181785,3.06149327 10.8298041,6.85767326 10.7644404,10.9943178 C10.7547569,11.6510561 10.7809831,12.2988347 10.832225,12.9385497 C10.8237519,13.1714992 10.8152789,13.4048966 10.812051,13.6405339 C10.8112441,13.7243061 10.8136649,13.6638289 10.8124545,13.7476011 C9.27116125,13.8062864 6.61061476,13.7417773 4.14575602,12.0448302 C2.04362572,10.6023356 0.921951583,7.80739022 0.395006827,4.9080656 C0.139200567,3.51664065 0.0234018345,2.10012884 0.00121043971,0.794715989 C-0.00322783924,0.5693822 -0.0290505532,0.126330276 0.724649909,0.126330276 C1.47713993,0.126330276 14.407057,0.088252001 14.407057,0.088252001" id="Fill-43" fill="#A6784B" mask="url(#mask-4)"></path>
                    </g>
                    <g id="Group-47" transform="translate(0.000000, 77.300559)">
                        <mask id="mask-6" fill="white">
                            <use xlink:href="#path-5"></use>
                        </mask>
                        <g id="Clip-46"></g>
                        <path d="M-11.0460745,13.9827518 C-10.9127798,13.1068371 -10.7434706,12.1562213 -10.7306379,11.241134 L68.8541677,11.241134 C68.8603771,12.174441 68.9402711,13.1696952 69.0702541,14.0642852 L-11.0460745,13.9827518" id="Fill-45" fill="#101B1E" mask="url(#mask-6)"></path>
                    </g>
                    <path d="M3.43749118,65.7877095 L5.78799327,65.7877095 C7.67117113,65.7889518 9.19845768,64.1335242 9.2,62.0898638 C9.2,60.0449483 7.6738702,58.3870105 5.79069234,58.3865922 L5.06155857,58.3865922 C5.06155857,58.3865922 4.67366403,58.4305194 4.59384875,58.7781717 C4.31700156,59.9750832 3.54853852,63.1734012 3.08391335,65.2873451 C2.97248043,65.7973189 3.43749118,65.7877095 3.43749118,65.7877095" id="Fill-48" fill="#DA324E"></path>
                    <path d="M180.933333,106.905028 L99.6666667,106.905028 C99.6666667,106.905028 105.533436,83.7308686 128.310595,83.8800468 C143.427272,83.8800468 146.943746,96.2691299 154.757542,96.2691299 C162.570116,96.2691299 161.398638,94.4256168 167.781217,94.4256168 C178.850932,94.4256168 180.933333,106.905028 180.933333,106.905028" id="Fill-49" fill="#63B9B4"></path>
                    <path d="M184,105.260335 L136.466667,105.260335 L181.364302,105.260335 C181.364302,105.260335 179.384731,93.9022035 169.085241,93.1479265 C169.548633,93.1226063 170.060105,93.1088356 170.630848,93.1088356 C181.882406,93.1088356 184,105.260335 184,105.260335 M154.756561,94.9039082 C152.670882,94.9039082 150.886947,94.0723378 149.111302,92.8458604 C149.331392,92.3403438 149.523712,91.817947 149.684946,91.2804469 C151.967919,93.1266042 154.086342,94.6129474 156.624636,94.8657057 C156.063012,94.8905817 155.443774,94.9039082 154.756561,94.9039082" id="Fill-50" fill="#C5E4DF"></path>
                    <path d="M148.274246,93.747486 C147.419758,93.0475899 146.567262,92.2120125 145.666667,91.3317698 C145.820912,90.7894662 145.934689,90.2223017 146.003021,89.6357542 C146.975929,90.5294807 147.869227,91.4341628 148.733333,92.2625769 C148.604298,92.7724351 148.450384,93.2679666 148.274246,93.747486" id="Fill-51" fill="#547275"></path>
                    <path d="M145.257205,91.2804469 C144.849358,90.971825 144.433838,90.6572451 144.007012,90.3410764 C144.117656,89.9665198 144.195995,89.5784585 144.239606,89.1792757 L142.464463,89.1792757 C142.46204,89.1967524 142.459213,89.2146263 142.456387,89.2325001 C139.94833,87.5142267 136.988008,85.902402 133.052891,85.1147607 L132.633333,84.701676 C136.696054,85.026583 139.833245,86.1879865 142.449522,87.6333857 C142.469712,87.7565167 142.485865,87.8812365 142.497171,88.0075451 L143.105711,88.0075451 C144.0163,88.5437608 144.863491,89.1101635 145.666667,89.6817297 C145.583482,90.2346277 145.444976,90.7692546 145.257205,91.2804469" id="Fill-52" fill="#B2DCD7"></path>
                    <path d="M130.304628,84.3616358 C130.063049,84.3180514 129.816632,84.2843352 129.566667,84.2604872 C129.819857,84.2382838 130.074337,84.2243039 130.333333,84.2193698 C130.323657,84.2662436 130.313981,84.3139397 130.304628,84.3616358" id="Fill-53" fill="#547275"></path>
                    <path d="M132.459862,84.5631106 C131.775228,84.3887732 131.06839,84.2547307 130.333333,84.1626279 C130.346748,84.1149318 130.360626,84.0672358 130.374504,84.020362 C130.480437,84.0187173 130.589146,84.017895 130.696004,84.017895 C130.778808,84.017895 130.860224,84.0187173 130.94349,84.0195397 C131.521266,84.0195397 132.084701,84.0450324 132.633333,84.0935508 C132.573659,84.248152 132.515835,84.4043978 132.459862,84.5631106" id="Fill-54" fill="#B2DCD7"></path>
                    <path d="M143.366667,87.9672134 L142.655672,87.9672134 C142.642462,87.7057073 142.62359,87.4474905 142.6,87.1925631 C142.859015,87.4458458 143.115672,87.7057073 143.366667,87.9672134" id="Fill-55" fill="#5D7C80"></path>
                    <path d="M133.4,84.701676 C133.151922,84.5397198 132.896439,84.3980082 132.633333,84.2779372 C132.659687,84.1432065 132.686913,84.0105699 132.715009,83.8793296 C132.870303,83.9044607 133.022983,83.9365727 133.173703,83.9756656 L133.4,84.701676" id="Fill-56" fill="#5D7C80"></path>
                    <path d="M144.6,90.4581006 C143.955729,90.1963554 143.290625,89.9332046 142.6,89.6734275 C142.603646,89.660776 142.607292,89.6481245 142.610417,89.6357542 L144.9,89.6357542 C144.84375,89.918304 144.742708,90.1929817 144.6,90.4581006" id="Fill-57" fill="#5D7C80"></path>
                    <path d="M180.166667,106.905028 L136.307065,106.905028 C135.224766,101.41165 133.556172,95.4433267 130.879377,89.6932956 C129.882918,87.5523897 128.954076,85.66083 128.033333,83.9336743 C128.360898,83.9103837 128.690891,83.8921166 129.026149,83.8793296 C129.339946,83.8925733 129.64929,83.9112971 129.95256,83.935501 C130.595947,83.9866489 131.214634,84.0610874 131.813887,84.1579031 C132.303006,84.2364517 132.777954,84.3291573 133.239136,84.4351066 C137.184888,85.3406988 140.153212,87.1938976 142.668047,89.1694861 C143.204945,89.5914564 143.722002,90.0189069 144.222864,90.444074 C144.650843,90.8075896 145.067486,91.1692785 145.476435,91.5241172 C146.575739,92.4781173 147.616333,93.3837095 148.659356,94.1422514 C150.393948,95.403139 152.136639,96.25804 154.174097,96.25804 C154.845421,96.25804 155.450342,96.2443397 155.998982,96.2187657 C156.244352,96.2447964 156.494175,96.25804 156.748452,96.25804 C163.824084,96.25804 163.478299,94.722689 168.171498,94.4527924 C178.232863,95.2282314 180.166667,106.905028 180.166667,106.905028" id="Fill-58" fill="#63BAB4"></path>
                    <g id="man" transform="translate(44.466667, 0.000000)">
                        <path d="M20.4648889,47.4124577 C20.4648889,47.4124577 23.2564119,46.867438 23.5159266,48.7545798 C23.7754413,50.6417216 21.2474102,51.7430615 21.2474102,51.7430615 L20.4648889,47.4124577" id="Fill-59" fill="#DAEDEC"></path>
                        <path d="M22.5113778,51.9701832 C22.5113778,51.9701832 24.9461389,50.5566945 25.4912549,54.7821525 C26.0354691,59.0071557 23.9298516,61.6513073 23.9298516,61.6513073 L22.5113778,51.9701832" id="Fill-60" fill="#DAEDEC"></path>
                        <path d="M21.9490554,76.623847 C21.9490554,76.623847 22.8211916,71.3212816 24.5031353,69.2541969 C26.185079,67.1871122 29.6740889,56.1467263 29.6740889,56.1467263 L15.6352545,56.1467263 L14.3254222,77.0641341 L21.9490554,76.623847" id="Fill-61" fill="#ED9E8B"></path>
                        <path d="M29.6740889,38.7873146 C29.6740889,38.7873146 31.2322669,37.0376007 32.1082116,42.7003726 C32.9841564,48.3650773 32.789338,48.7255542 32.4971104,49.7030939 C32.2052519,50.6820832 30.744852,52.8439777 30.744852,52.8439777 L29.6740889,38.9931633" id="Fill-62" fill="#ED9E8B"></path>
                        <path d="M31.6836426,55.8736305 C31.8631913,56.9171456 31.3709095,57.895731 30.5808949,58.0606321 L18.6888567,60.5269352 C17.8992967,60.6908057 17.1129185,59.9786388 16.9324606,58.9346083 L12.3160116,32.2015532 C12.1360082,31.1575227 12.6287446,30.1784221 13.4178501,30.0145515 L25.3098883,27.5461872 C26.0989938,27.382832 26.8858265,28.0965449 27.066739,29.1390294 L31.6836426,55.8736305" id="Fill-63" fill="#1C2B2F"></path>
                        <polyline id="Fill-64" fill="#3A6080" points="30.6973333 53.6871246 17.8037062 56.1467263 13.3021778 32.1848224 26.1971956 29.7247374 30.6973333 53.6871246"></polyline>
                        <path d="M25.5680365,56.6120767 C25.5053776,56.3116328 25.2318252,56.1069079 24.9556619,56.1532761 C24.680659,56.2012712 24.508057,56.4824628 24.5707159,56.7831779 C24.6336649,57.0828083 24.9080876,57.2880755 25.1839607,57.2408939 C25.4589636,57.1939834 25.6312756,56.911436 25.5680365,56.6120767" id="Fill-65" fill="#DEEBEB"></path>
                        <g id="Group-69" transform="translate(0.000000, 39.632983)">
                            <path d="M9.56709321,37.0425752 L11.5514221,28.068361 C11.5514221,28.068361 11.2925126,24.0834696 10.5592577,19.7672502 C9.82551969,15.4525232 9.99893111,12.9735328 10.5592577,8.88217861 C11.1200673,4.79032698 11.4514328,0.387544367 12.6030006,0.344760265 C12.6030006,0.344760265 14.1400343,-0.689520531 14.8298156,4.09483657 C15.5191139,8.87819869 16.1238802,13.7645412 16.1238802,13.7645412 C16.1238802,13.7645412 19.6012862,18.917538 19.7606895,21.849244 C19.9186436,24.7814475 18.6245791,35.8869069 18.6245791,35.8869069 L9.56709321,37.0425752" id="Fill-66" fill="#ED9E8B"></path>
                            <path d="M8.72612031,34.477519 L0.625053954,71.3897519 C0.625053954,71.3897519 -2.07658961,81.0554766 8.08512603,84.2792089 C18.2463586,87.5014488 23.7375591,63.1612746 23.7375591,63.1612746 L24.122059,34.477519 L8.72612031,34.477519" id="Fill-68" fill="#77648D"></path>
                        </g>
                        <g id="Group-72" transform="translate(0.000000, 74.862302)">
                            <mask id="mask-8" fill="white">
                                <use xlink:href="#path-7"></use>
                            </mask>
                            <g id="Clip-71"></g>
                            <polyline id="Fill-70" fill="#857695" mask="url(#mask-8)" points="22.3971226 -2.4950259 17.3435566 26.4447465 28.2795856 18.1263729 27.7129795 -4.11883465 22.3971226 -2.4950259"></polyline>
                        </g>
                        <path d="M21.6879273,45.046028 C23.69106,44.5620275 24.8874868,42.3581053 24.4777186,39.8828714 C24.0691533,37.4153893 22.2632867,35.9377101 20.260154,36.4217106 C18.2570213,36.9061956 17.0666087,39.1081799 17.475174,41.575662 C17.8849422,44.0508959 19.6847946,45.530513 21.6879273,45.046028 Z M20.3976789,37.2346764 C22.0359496,36.8388522 23.4697371,38.025356 23.8041272,40.0456584 C24.140121,42.0732281 23.1942863,43.8357845 21.5560157,44.2316088 C19.9257639,44.6254951 18.4839574,43.4404448 18.1483645,41.4133595 C17.8139745,39.3930571 18.7674272,37.6285627 20.3976789,37.2346764 Z M23.1710314,42.5644959 L22.6097052,39.1735854 C22.5531716,38.831539 22.420859,38.7220454 22.1458091,38.7889043 L21.5880914,38.9235911 L22.2284043,42.7922038 L23.1710314,42.5644959 Z M19.7697954,39.363019 L19.2144834,39.4972214 C18.9302118,39.5660182 18.8496214,39.7268673 18.9061549,40.0689137 L19.4678821,43.4598242 L20.4105092,43.2316317 L19.7697954,39.363019 Z M21.8242494,42.8895853 L21.1322144,38.7099333 C21.1125679,38.5902655 21.1157755,38.5311583 21.1434409,38.4662373 L21.2212247,38.3896887 L21.3086312,38.3683713 L21.3583486,38.3562592 L21.2773573,37.8683828 L20.4429859,38.0699286 C20.1567096,38.1392099 20.0809305,38.2816485 20.1402707,38.638714 L20.8816223,43.1177778 L21.8242494,42.8895853 L21.8242494,42.8895853 Z" id="Fill-73" fill="#FFFFFF"></path>
                        <path d="M32.4779938,61.6513073 C30.9597038,59.325617 24.4507568,50.6925258 24.5592061,48.7450376 C24.6089535,47.8534894 25.7103605,46.9997614 26.7436135,47.4757916 C27.7768666,47.9523262 35.8135556,57.153729 35.8135556,57.153729 L32.6730036,61.3840445" id="Fill-74" fill="#ED9E8B"></path>
                        <path d="M34.6762119,58.3485587 L35.8135556,57.3063356 C35.8135556,57.3063356 29.4668246,48.8768693 28.6508444,48.4403128 C28.6508444,48.4403128 35.7899837,58.3688539 34.6762119,58.3485587" id="Fill-75" fill="#DD8677"></path>
                        <path d="M36.8368,71.5595531 C35.502953,71.2602044 35.1236126,71.3269972 34.2622099,70.5420601 C33.4011918,69.7576106 30.6057686,66.4194342 30.6996419,64.5141336 C30.7935152,62.608833 32.9822246,61.6513073 32.9822246,61.6513073 L36.8368,71.5595531" id="Fill-76" fill="#ED9E8B"></path>
                        <path d="M41.6786133,70.7147873 C43.7649884,71.331277 52.920319,84.7705475 52.920319,84.7705475 L61.3946667,74.9383539 L53.1465179,65.3230545 C51.9157857,63.6710868 52.3786823,62.1191455 51.8041179,60.6463068 C51.4070767,59.6307319 49.9935719,56.4385607 45.7478082,53.5102348 C42.1233758,51.0100835 31.6289856,56.0583581 32.8406293,60.1727121 C32.9938147,60.691727 35.3240456,68.1952431 38.5843645,69.9421339 C38.5843645,69.9421339 40.0642019,70.2381306 41.6786133,70.7147873" id="Fill-77" fill="#ED9E8B"></path>
                        <path d="M35.3413893,67.9774724 C34.110138,67.4159461 32.7438222,62.7522235 32.7438222,62.7522235 C32.7438222,62.7522235 34.719794,67.9363565 36.8368,68.1540752 C36.8368,68.1540752 36.4383223,68.477129 35.3413893,67.9774724" id="Fill-78" fill="#DD8677"></path>
                        <path d="M55.073176,56.7378564 L56.9624693,56.7378564 C56.9624693,56.7378564 62.2627534,57.3134758 63.5824597,57.663064 C64.459465,57.8959594 65.3425347,58.2695727 66.2293363,58.7995936 C69.5988093,57.9415579 72.7084461,56.5299666 75.2396326,55.0458101 C89.9523293,67.980085 93.9618295,72.338416 100.572024,85.5703068 C108.194506,100.828142 108.720709,117.518652 109.487156,124.403531 L25.5811111,124.403531 C25.5811111,124.403531 28.669719,109.725727 30.2012128,104.1078 C26.3862398,108.156257 29.9833609,80.2828458 29.9833609,80.2828458 C29.9833609,80.2828458 50.5463359,56.642737 55.073176,56.7378564 Z" id="Fill-79" fill="#77648D"></path>
                        <g id="Group-82" transform="translate(24.557867, 92.476961)">
                            <mask id="mask-10" fill="white">
                                <use xlink:href="#path-9"></use>
                            </mask>
                            <g id="Clip-81"></g>
                            <polygon id="Fill-80" fill="#705F85" mask="url(#mask-10)" points="-0.561318344 31.9265698 39.3641543 31.3761117 39.3641543 0.367404147 0.235263832 0.367404147"></polygon>
                        </g>
                        <g id="Group-86" transform="translate(42.976267, 0.000000)">
                            <mask id="mask-12" fill="white">
                                <use xlink:href="#path-11"></use>
                            </mask>
                            <g id="Clip-84"></g>
                            <path d="M30.2520057,53.9241262 L28.8715072,41.4865989 L19.0019114,17.5321864 L4.36143457,13.0990334 C4.36143457,13.0990334 -2.90255107,34.508647 3.84501563,44.7237774 C4.77503081,46.085761 10.0056169,45.4662635 10.0056169,45.4662635 C10.0056169,45.4662635 10.1955853,49.0997382 10.319157,55.6702591 C10.3989252,59.9561296 29.2431444,61.8419531 30.2520057,53.9241262" id="Fill-83" fill="#ED9E8B" mask="url(#mask-12)"></path>
                            <path d="M24.9370405,44.0916267 C29.4483287,43.9681321 29.2353059,42.1005291 29.1541544,41.5706157 C29.0725418,41.0412085 28.6109923,37.0068823 30.1422667,33.7357934 C31.6712356,30.466729 36.2742805,28.6057056 36.3321649,17.1308289 C36.366037,10.8320974 32.8779038,9.00245378 30.4267582,7.60453523 C28.8097214,1.9551627 21.8980072,-2.24162972 13.9585272,1.3093466 C5.59622913,5.04961384 -1.62625856,2.27857688 0.700393182,12.0918437 C1.13473839,13.9224995 1.99097943,16.0021691 5.21168146,18.3683057 C5.77328705,22.080736 5.61144505,26.5882895 7.38340752,26.9420712 C9.15398673,27.2968651 8.43007804,23.2301469 11.7328538,24.3790518 C15.0347074,25.5279566 14.9540169,28.7985394 14.9540169,29.4165186 C15.0347074,33.306599 13.1820544,33.5707965 13.1018251,36.8434038 C13.0202124,40.1134805 18.4960975,44.2692767 24.9370405,44.0916267" id="Fill-85" fill="#1C2B2F" mask="url(#mask-12)"></path>
                        </g>
                        <path d="M29.5470885,79.2659665 L59.3481778,87.9956742 C59.3481778,87.9956742 21.9084685,121.886706 10.2324444,123.302615 C12.4475725,104.871584 14.599942,96.217335 14.599942,96.217335 L29.5470885,79.2659665 Z" id="Fill-87" fill="#77648D"></path>
                    </g>
                </g>
            </g>
        </g>
    </g>
</svg>